<svg width="16" height="16" viewBox="0 0 16 16" fill="none" xmlns="http://www.w3.org/2000/svg">
<path d="M13.9004 12.3691H2.09961V13.9229C2.09961 14.135 2.30672 14.4003 2.68164 14.4004H13.3184C13.6933 14.4003 13.9004 14.135 13.9004 13.9229V12.3691ZM8.59082 8.47656V9.67676H5.0459V8.47656H8.59082ZM10.9551 5.78418V6.98438H5.0459V5.78418H10.9551ZM10.9551 3.09277V4.29199H5.0459V3.09277H10.9551ZM13.9004 2.07715C13.9004 1.86504 13.6933 1.59969 13.3184 1.59961H2.68164C2.30673 1.59969 2.09961 1.86505 2.09961 2.07715V11.1689H13.9004V2.07715ZM15.0996 13.9229C15.0996 14.9002 14.2487 15.5995 13.3184 15.5996H2.68164C1.75135 15.5995 0.900391 14.9002 0.900391 13.9229V2.07715C0.900391 1.0998 1.75135 0.40048 2.68164 0.400391H13.3184C14.2487 0.400479 15.0996 1.09981 15.0996 2.07715V13.9229Z" fill="#1C1917"/>
</svg>
