<svg width="20" height="20" viewBox="0 0 20 20" fill="none" xmlns="http://www.w3.org/2000/svg">
<path fill-rule="evenodd" clip-rule="evenodd" d="M9.99936 0.666504C7.43286 0.666504 7.12257 0.666504 6.18929 0.74467C5.17785 0.74467 4.47789 0.899837 3.85611 1.13317C3.24159 1.38605 2.68577 1.75622 2.22168 2.22167C1.67807 2.7665 1.36658 3.23317 1.13326 3.855C0.899944 4.478 0.7448 5.178 0.7448 6.18834C0.666626 7.12167 0.666626 7.43317 0.666626 9.99984C0.666626 12.5665 0.666626 12.878 0.7448 13.8113C0.821771 14.8217 0.978118 15.4447 1.21144 16.0665C1.36658 16.6883 1.67807 17.2332 2.22168 17.778C2.76649 18.3217 3.23313 18.6332 3.85611 18.8665C4.47789 19.0998 5.09967 19.255 6.11112 19.3332H10.0006C12.5671 19.3332 12.8774 19.3332 13.8106 19.255C14.8221 19.178 15.4439 19.0217 16.0668 18.7883C16.6886 18.555 17.2334 18.2447 17.7001 17.6998C18.2449 17.155 18.5552 16.6883 18.7885 16.0665C19.0218 15.4447 19.1781 14.8217 19.2551 13.8113C19.3333 12.878 19.3333 12.5665 19.3333 9.99984C19.3333 7.43317 19.3333 7.12167 19.2551 6.18834C19.1781 5.178 19.0218 4.555 18.7885 3.93317C18.6321 3.31134 18.3218 2.7665 17.7782 2.22167C17.2334 1.678 16.7668 1.3665 16.1438 1.13317C15.522 0.899837 14.9002 0.744671 13.8888 0.666504H9.99936ZM10.0018 2.37917C12.4913 2.37917 12.8016 2.37917 13.813 2.45734C14.7463 2.53434 15.2129 2.6125 15.5232 2.76767C15.9899 2.924 16.3014 3.15734 16.6129 3.46767C16.9231 3.77917 17.1577 4.09067 17.3128 4.55734C17.4692 4.86767 17.6231 5.4125 17.6231 6.26767C17.7013 7.27917 17.7013 7.51251 17.7013 10.001C17.7013 12.4907 17.7013 12.801 17.6231 13.7343C17.5847 14.2611 17.4941 14.7831 17.3525 15.293L17.3128 15.4458C17.1565 15.9125 16.9231 16.224 16.6129 16.5343C16.3014 16.8458 15.9899 17.0792 15.5232 17.2343C15.2129 17.3907 14.6681 17.5458 13.813 17.5458C12.8016 17.624 12.5683 17.624 10.0006 17.624C7.51223 17.624 7.20194 17.624 6.1905 17.5458C5.39794 17.4793 4.94212 17.358 4.63183 17.2752C4.58104 17.2612 4.53012 17.2475 4.4791 17.2343C4.01246 17.0792 3.70097 16.8458 3.39068 16.5343C3.07919 16.224 2.84587 15.9125 2.69072 15.4458C2.53438 15.1343 2.37923 14.5907 2.37923 13.7343C2.37923 13.3412 2.3672 13.0658 2.35277 12.7287C2.31359 11.8196 2.29674 10.9097 2.30226 9.99984C2.30226 7.51134 2.30226 7.19984 2.38043 6.1895C2.38043 5.33317 2.53678 4.7895 2.69193 4.478C2.84827 4.01134 3.08039 3.69984 3.39188 3.3895C3.70217 3.078 4.01366 2.84467 4.4803 2.6895C4.79179 2.53317 5.3366 2.378 6.1917 2.378C7.20194 2.29984 7.43646 2.29984 10.003 2.378L10.0018 2.37917ZM5.17665 10.001C5.17665 7.35617 7.35348 5.178 9.99936 5.178C12.6428 5.178 14.8221 7.35617 14.8221 10.001C14.8221 12.6447 12.6428 14.8228 9.99936 14.8228C7.35348 14.8228 5.17665 12.6447 5.17665 10.001ZM9.99816 13.109C8.28675 13.109 6.88684 11.709 6.88684 9.99867C6.88684 8.28717 8.28675 6.88717 9.99816 6.88717C11.7084 6.88717 13.1083 8.28717 13.1083 9.99867C13.1083 11.709 11.7084 13.109 9.99816 13.109ZM14.976 6.11134C15.5978 6.11134 16.0644 5.64467 16.0644 5.02284C16.0644 4.401 15.5978 3.93434 14.976 3.93434C14.353 3.93434 13.8864 4.401 13.8864 5.02284C13.8864 5.64467 14.353 6.11134 14.976 6.11134Z" fill="#A8A29E"/>
</svg>
