<svg width="20" height="20" viewBox="0 0 20 20" fill="none" xmlns="http://www.w3.org/2000/svg">
<path d="M19.3333 8.65147C19.3333 4.26392 15.1184 0.666016 9.99996 0.666016C4.88156 0.666016 0.666626 4.23261 0.666626 8.65147C0.666626 12.5654 3.97809 15.8483 8.46463 16.4794C8.76516 16.5107 9.18703 16.7005 9.27663 16.953C9.36809 17.1741 9.30743 17.5841 9.30743 17.8365C9.30743 17.8365 9.18703 18.5626 9.18703 18.6888C9.15716 18.91 9.00596 19.6673 9.99996 19.1624C10.9632 18.7211 15.3592 15.816 17.3462 13.4813C18.7014 11.9656 19.3333 10.3873 19.3333 8.65147ZM6.68849 10.9558C6.68504 11.005 6.66485 11.0512 6.63162 11.086C6.59838 11.1209 6.5543 11.142 6.50743 11.1456H3.88849C3.85769 11.1456 3.79796 11.1133 3.76716 11.1133C3.73729 11.082 3.73729 11.0194 3.73729 10.9871V6.69449C3.73729 6.59958 3.82783 6.50564 3.91836 6.50564H4.55023C4.64076 6.50564 4.73129 6.59958 4.73129 6.69449V10.0722H6.50743C6.59796 10.0722 6.68849 10.1671 6.68849 10.2611V10.9558ZM8.25369 10.9558C8.25024 11.005 8.23005 11.0512 8.19682 11.086C8.16358 11.1209 8.1195 11.142 8.07263 11.1456H7.44076C7.39405 11.1418 7.3502 11.1205 7.31715 11.0857C7.28411 11.0509 7.26405 11.0048 7.26063 10.9558V6.69449C7.26063 6.59958 7.35023 6.50564 7.44076 6.50564H8.07263C8.16316 6.50564 8.25369 6.59958 8.25369 6.69449V10.9558ZM12.8 10.9558C12.7965 11.005 12.7763 11.0512 12.7431 11.086C12.7098 11.1209 12.6658 11.142 12.6189 11.1456H11.9572C11.9273 11.1456 11.9273 11.1133 11.9273 11.1133L9.99996 8.46164V10.9871C9.99651 11.0363 9.97632 11.0825 9.94308 11.1173C9.90985 11.1522 9.86577 11.1733 9.81889 11.177H9.18703C9.14015 11.1733 9.09607 11.1522 9.06284 11.1173C9.0296 11.0825 9.00941 11.0363 9.00596 10.9871V6.7258C9.00596 6.63187 9.09649 6.53695 9.18703 6.53695H9.81983L9.84969 6.56826L11.7164 9.18866V6.66318C11.7164 6.56826 11.806 6.47335 11.8965 6.47335H12.6189C12.7094 6.47335 12.8 6.56826 12.8 6.66318V10.9558ZM16.4129 7.38922C16.4092 7.43819 16.3889 7.48416 16.3557 7.51881C16.3225 7.55345 16.2786 7.57447 16.2318 7.57806H14.4557V8.3041H16.2318C16.3224 8.3041 16.4129 8.39902 16.4129 8.49393V9.15637C16.4094 9.20551 16.3893 9.25172 16.356 9.28657C16.3228 9.32141 16.2787 9.34258 16.2318 9.3462H14.4557V10.0086H16.2318C16.3224 10.0086 16.4129 10.1035 16.4129 10.1985V10.8609C16.4094 10.91 16.3893 10.9563 16.356 10.9911C16.3228 11.0259 16.2787 11.0471 16.2318 11.0507H13.6129C13.583 11.0507 13.5224 11.0194 13.4916 11.0194C13.4626 10.9871 13.4626 10.9245 13.4626 10.8922V6.63284C13.4626 6.60055 13.4925 6.53793 13.4925 6.50564C13.5224 6.47433 13.583 6.47433 13.6129 6.47433H16.2318C16.3224 6.47433 16.4129 6.56924 16.4129 6.66416V7.38922Z" fill="#A8A29E"/>
</svg>
