<svg width="18" height="18" viewBox="0 0 18 18" fill="none" xmlns="http://www.w3.org/2000/svg">
<path d="M16.4004 9C16.4004 4.91309 13.0869 1.59961 9 1.59961C4.91309 1.59961 1.59961 4.91309 1.59961 9C1.59961 13.0869 4.91309 16.4004 9 16.4004C13.0869 16.4004 16.4004 13.0869 16.4004 9ZM11.2002 11C11.2002 10.2268 10.573 9.59961 9.7998 9.59961H8.2002C6.76426 9.59961 5.59961 8.43594 5.59961 7C5.59961 5.56406 6.76426 4.40039 8.2002 4.40039H8.40039V3.28613H9.59961V4.40039H9.93359C11.2956 4.40053 12.4001 5.5042 12.4004 6.86621H11.2002C11.1999 6.16695 10.6329 5.59975 9.93359 5.59961H8.2002C7.427 5.59961 6.7998 6.2268 6.7998 7C6.7998 7.7732 7.427 8.40039 8.2002 8.40039H9.7998C11.2357 8.40039 12.4004 9.56406 12.4004 11C12.4004 12.4359 11.2357 13.5996 9.7998 13.5996H9.59961V14.7139H8.40039V13.5996H8.06641C6.70438 13.5995 5.59986 12.4958 5.59961 11.1338H6.7998C6.80005 11.8331 7.36712 12.4003 8.06641 12.4004H9.7998C10.573 12.4004 11.2002 11.7732 11.2002 11ZM17.5996 9C17.5996 13.7496 13.7496 17.5996 9 17.5996C4.25035 17.5996 0.400391 13.7496 0.400391 9C0.400391 4.25035 4.25035 0.400391 9 0.400391C13.7496 0.400391 17.5996 4.25035 17.5996 9Z" fill="#1C1917"/>
</svg>
