<svg width="18" height="16" viewBox="0 0 18 16" fill="none" xmlns="http://www.w3.org/2000/svg">
<path d="M13.3984 5.81C13.3984 3.37994 11.4281 1.40961 8.99805 1.40961C6.56799 1.40961 4.59766 3.37994 4.59766 5.81C4.59766 8.1641 6.44671 10.0866 8.77148 10.2045L8.99805 10.2104L9.22461 10.2045C11.5494 10.0866 13.3984 8.1641 13.3984 5.81ZM14.5977 5.81C14.5977 7.87356 13.4808 9.67453 11.8193 10.6459C12.4624 10.8493 13.0848 11.1222 13.6738 11.4623C15.0063 12.2318 16.1266 13.3175 16.9375 14.6215L17.0957 14.8852L17.3955 15.4047L16.3564 16.0043L16.0566 15.4848L15.9189 15.2553C15.212 14.1185 14.235 13.1722 13.0732 12.5014C11.8344 11.786 10.429 11.4096 8.99805 11.4096C7.56705 11.4096 6.16166 11.786 4.92285 12.5014C3.68381 13.2168 2.65471 14.2457 1.93945 15.4848L1.63965 16.0043L0.600586 15.4047L0.900391 14.8852C1.72088 13.4637 2.901 12.2831 4.32227 11.4623C4.91132 11.1222 5.53372 10.8493 6.17676 10.6459C4.51527 9.67453 3.39844 7.87356 3.39844 5.81C3.39844 2.7172 5.90525 0.210388 8.99805 0.210388C12.0909 0.210388 14.5977 2.7172 14.5977 5.81Z" fill="#1C1917"/>
</svg>
