<svg width="24" height="24" viewBox="0 0 24 24" fill="#1C1917" xmlns="http://www.w3.org/2000/svg">
<path d="M12.001 3.90039C14.1492 3.90052 16.2095 4.75344 17.7285 6.27246C19.2447 7.78861 20.0963 9.84447 20.0996 11.9883C20.0997 11.9924 20.1016 11.9969 20.1016 12.001C20.1016 12.0049 20.0997 12.0088 20.0996 12.0127C20.098 13.0723 19.8899 14.1215 19.4844 15.1006C19.0773 16.0833 18.4807 16.9764 17.7285 17.7285C16.9764 18.4807 16.0833 19.0773 15.1006 19.4844C14.1179 19.8914 13.0646 20.1005 12.001 20.1006C10.9372 20.1006 9.88319 19.8915 8.90039 19.4844C7.91765 19.0773 7.02462 18.4807 6.27246 17.7285C5.5203 16.9764 4.92369 16.0833 4.5166 15.1006C4.10957 14.1179 3.90045 13.0646 3.90039 12.001C3.90039 9.85259 4.75332 7.7916 6.27246 6.27246C7.7916 4.75332 9.85259 3.90039 12.001 3.90039ZM9.61133 12.6006C9.63546 13.3281 9.70487 14.0536 9.82129 14.7725L9.87891 15.0967C10.0201 15.8425 10.2103 16.5126 10.4375 17.0801V17.0811C10.6983 17.7333 10.9928 18.2101 11.2852 18.5127C11.5748 18.8125 11.8187 18.9004 12.001 18.9004C12.1833 18.9003 12.4271 18.8119 12.7178 18.5117C13.0096 18.2087 13.3051 17.7321 13.5654 17.0801C13.825 16.4316 14.0363 15.648 14.1807 14.7725L14.2764 14.1045C14.3357 13.6158 14.3736 13.1115 14.3906 12.6006H9.61133ZM5.12695 12.6006C5.18814 13.3012 5.35501 13.9898 5.625 14.6416C5.97178 15.4787 6.48039 16.2392 7.12109 16.8799C7.7618 17.5206 8.52227 18.0292 9.35938 18.376C9.51121 18.4389 9.66576 18.4941 9.82129 18.5459C9.68356 18.3157 9.55536 18.0651 9.4375 17.7979L9.32324 17.5264C9.02508 16.7817 8.79303 15.9127 8.63672 14.9688V14.9668C8.5098 14.1837 8.43538 13.3932 8.41113 12.6006H5.12695ZM15.5908 12.6006C15.5654 13.4116 15.4898 14.2111 15.3643 14.9688C15.2088 15.9116 14.9767 16.7809 14.6787 17.5254C14.5306 17.8963 14.3631 18.2385 14.1797 18.5449C14.3351 18.4932 14.4898 18.4388 14.6416 18.376C15.4787 18.0292 16.2392 17.5206 16.8799 16.8799C17.5206 16.2392 18.0292 15.4787 18.376 14.6416C18.646 13.9898 18.8128 13.3012 18.874 12.6006H15.5908ZM9.81934 5.45508C8.81214 5.79086 7.88581 6.35638 7.12109 7.12109C5.96913 8.27306 5.26843 9.79096 5.12793 11.4014H8.41309C8.43802 10.5903 8.51112 9.79033 8.63672 9.03223C8.79303 8.08905 9.02501 7.21841 9.32324 6.47363C9.47117 6.10336 9.63623 5.76097 9.81934 5.45508ZM12.001 5.09961C11.8195 5.09964 11.5748 5.18737 11.2842 5.48633C10.9922 5.78919 10.6981 6.26654 10.4375 6.91895V6.91992C10.1778 7.56837 9.96648 8.35166 9.82129 9.22754C9.70673 9.91886 9.6372 10.6531 9.6123 11.4014H14.3887C14.3639 10.6534 14.2957 9.91952 14.1807 9.22852V9.22754C14.0363 8.35126 13.8251 7.56848 13.5654 6.91992C13.3046 6.26757 13.0092 5.78994 12.7168 5.4873C12.4273 5.18786 12.1832 5.09967 12.001 5.09961ZM14.1826 5.45605C14.366 5.762 14.5319 6.10395 14.6797 6.47363H14.6787C14.9768 7.21812 15.2087 8.08724 15.3643 9.03125L15.4199 9.38867C15.5134 10.0393 15.5696 10.7165 15.5908 11.4014H18.873C18.7325 9.79096 18.0318 8.27306 16.8799 7.12109C16.1154 6.35661 15.1893 5.79187 14.1826 5.45605Z" />
</svg>
