<svg width="24" height="24" viewBox="0 0 24 24" fill="#1C1917" xmlns="http://www.w3.org/2000/svg">
<path d="M16.3984 9.81C16.3984 7.37994 14.4281 5.40961 11.998 5.40961C9.56799 5.40961 7.59766 7.37994 7.59766 9.81C7.59766 12.1641 9.44671 14.0866 11.7715 14.2045L11.998 14.2104L12.2246 14.2045C14.5494 14.0866 16.3984 12.1641 16.3984 9.81ZM17.5977 9.81C17.5977 11.8736 16.4808 13.6745 14.8193 14.6459C15.4624 14.8493 16.0848 15.1222 16.6738 15.4623C18.0063 16.2318 19.1266 17.3175 19.9375 18.6215L20.0957 18.8852L20.3955 19.4047L19.3564 20.0043L19.0566 19.4848L18.9189 19.2553C18.212 18.1185 17.235 17.1722 16.0732 16.5014C14.8344 15.786 13.429 15.4096 11.998 15.4096C10.5671 15.4096 9.16166 15.786 7.92285 16.5014C6.68381 17.2168 5.65471 18.2457 4.93945 19.4848L4.63965 20.0043L3.60059 19.4047L3.90039 18.8852C4.72088 17.4637 5.901 16.2831 7.32227 15.4623C7.91132 15.1222 8.53372 14.8493 9.17676 14.6459C7.51527 13.6745 6.39844 11.8736 6.39844 9.81C6.39844 6.7172 8.90525 4.21039 11.998 4.21039C15.0909 4.21039 17.5977 6.7172 17.5977 9.81Z" />
</svg>
