<svg width="20" height="21" viewBox="0 0 20 21" fill="none" xmlns="http://www.w3.org/2000/svg">
<path d="M16.1673 10.5001C16.1673 7.09433 13.4061 4.33309 10.0003 4.33309C6.59457 4.33309 3.83333 7.09433 3.83333 10.5001C3.83333 13.9058 6.59457 16.6671 10.0003 16.6671C13.4061 16.6671 16.1673 13.9058 16.1673 10.5001ZM9.50065 12.5004H10.5V13.9164H9.50065V12.5004ZM9.50065 7.08374H10.5V11.4164H9.50065V7.08374ZM17.1667 10.5001C17.1667 14.4581 13.9584 17.6664 10.0003 17.6664C6.04229 17.6664 2.83398 14.4581 2.83398 10.5001C2.83398 6.54204 6.04229 3.33374 10.0003 3.33374C13.9584 3.33374 17.1667 6.54204 17.1667 10.5001Z" fill="#8A5E4B"/>
</svg>
