<svg width="20" height="21" viewBox="0 0 20 21" fill="none" xmlns="http://www.w3.org/2000/svg">
<path d="M16.1668 10.5001C16.1668 7.09433 13.4056 4.33309 9.99984 4.33309C6.59408 4.33309 3.83285 7.09433 3.83285 10.5001C3.83285 13.9058 6.59408 16.6671 9.99984 16.6671C13.4056 16.6671 16.1668 13.9058 16.1668 10.5001ZM9.50016 12.5004H10.4995V13.9164H9.50016V12.5004ZM9.50016 7.08374H10.4995V11.4164H9.50016V7.08374ZM17.1662 10.5001C17.1662 14.4581 13.9579 17.6664 9.99984 17.6664C6.0418 17.6664 2.8335 14.4581 2.8335 10.5001C2.8335 6.54204 6.0418 3.33374 9.99984 3.33374C13.9579 3.33374 17.1662 6.54204 17.1662 10.5001Z" fill="#8A5E4B"/>
</svg>
